# xmcd CD database file
#
# Track frame offsets:
#	150
#	19514
#	35770
#	53403
#	70590
#	90444
#	113275
#	136133
#	159090
#	193225
#
# Disc length: 2868 seconds
#
# Revision: 0
# Processed by: cddbd v1.5.2PL0 Copyright (c) Steve Scherf et al.
# Submitted via: CDex 1.51
#
DISCID=6b0b320a
DTITLE=Various Artist - Jazziism 0108
DYEAR=2008
DGENRE=Jazz
TTITLE0=Hubbah ~ Michiel Borstlap
TTITLE1=La rive gauche ~ Eddy de Clercq
TTITLE2=Sensual ~ Tique-Tim
TTITLE3=Cool rules ~ The Aurora Tunes ft. Gerard Presenger
TTITLE4=You do my soul good ~ Betty Harris
TTITLE5=Brassica ~ Pitch Pine Project ft. Randy Brecker
TTITLE6=Desiderata ~ Wolfert Brederode Quartet
TTITLE7=Carolina in my mind ~ James Taylor
TTITLE8=The absence ~ Chris Potter
TTITLE9=It don't mean a thing if it ain't got that swing ~ Puppini Sisters
EXTD=YEAR: 2008
EXTT0=
EXTT1=
EXTT2=
EXTT3=
EXTT4=
EXTT5=
EXTT6=
EXTT7=
EXTT8=
EXTT9=
PLAYORDER=
